<svg width="121" height="26" viewBox="0 0 121 26" fill="none" xmlns="http://www.w3.org/2000/svg">
<path d="M10.3778 15.7139C14.0351 15.7139 17 12.7491 17 9.09171C17 5.43436 14.0351 2.46948 10.3778 2.46948C6.72043 2.46948 3.75555 5.43436 3.75555 9.09171C3.75555 12.7491 6.72043 15.7139 10.3778 15.7139Z" fill="url(#paint0_linear_2_756)"/>
<path d="M8.55017 0C3.81469 0 0 4.11503 0 9.22334C0 9.36523 0 9.50713 0 9.69633V25.0213C3.50776 25.0213 6.35782 21.9468 6.35782 18.1629V18.1156V9.64903C6.35782 6.43269 8.7694 3.83123 11.751 3.83123C14.5134 3.83123 16.6421 6.19685 16.9929 8.751C16.6859 3.97378 13.0664 0 8.55017 0Z" fill="url(#paint1_linear_2_756)"/>
<path d="M30.4021 8.15674V11.8287H34.7221V13.5027H30.4021V17.3367H35.2621V19.0107H28.3501V6.48274H35.2621V8.15674H30.4021ZM48.7955 8.93074C49.5755 8.93074 50.2715 9.09274 50.8835 9.41674C51.5075 9.74074 51.9935 10.2207 52.3415 10.8567C52.7015 11.4927 52.8815 12.2607 52.8815 13.1607V19.0107H50.8475V13.4667C50.8475 12.5787 50.6255 11.9007 50.1815 11.4327C49.7375 10.9527 49.1315 10.7127 48.3635 10.7127C47.5955 10.7127 46.9835 10.9527 46.5275 11.4327C46.0835 11.9007 45.8615 12.5787 45.8615 13.4667V19.0107H43.8275V13.4667C43.8275 12.5787 43.6055 11.9007 43.1615 11.4327C42.7175 10.9527 42.1115 10.7127 41.3435 10.7127C40.5755 10.7127 39.9635 10.9527 39.5075 11.4327C39.0635 11.9007 38.8415 12.5787 38.8415 13.4667V19.0107H36.7895V9.09274H38.8415V10.2267C39.1775 9.81874 39.6035 9.50074 40.1195 9.27274C40.6355 9.04474 41.1875 8.93074 41.7755 8.93074C42.5675 8.93074 43.2755 9.09874 43.8995 9.43474C44.5235 9.77074 45.0035 10.2567 45.3395 10.8927C45.6395 10.2927 46.1075 9.81874 46.7435 9.47074C47.3795 9.11074 48.0635 8.93074 48.7955 8.93074ZM56.5446 10.5507C56.8926 10.0947 57.3666 9.71074 57.9666 9.39874C58.5666 9.08674 59.2446 8.93074 60.0006 8.93074C60.8646 8.93074 61.6506 9.14674 62.3586 9.57874C63.0786 9.99874 63.6426 10.5927 64.0506 11.3607C64.4586 12.1287 64.6626 13.0107 64.6626 14.0067C64.6626 15.0027 64.4586 15.8967 64.0506 16.6887C63.6426 17.4687 63.0786 18.0807 62.3586 18.5247C61.6506 18.9567 60.8646 19.1727 60.0006 19.1727C59.2446 19.1727 58.5726 19.0227 57.9846 18.7227C57.3966 18.4107 56.9166 18.0267 56.5446 17.5707V23.7267H54.4926V9.09274H56.5446V10.5507ZM62.5746 14.0067C62.5746 13.3227 62.4306 12.7347 62.1426 12.2427C61.8666 11.7387 61.4946 11.3607 61.0266 11.1087C60.5706 10.8447 60.0786 10.7127 59.5506 10.7127C59.0346 10.7127 58.5426 10.8447 58.0746 11.1087C57.6186 11.3727 57.2466 11.7567 56.9586 12.2607C56.6826 12.7647 56.5446 13.3587 56.5446 14.0427C56.5446 14.7267 56.6826 15.3267 56.9586 15.8427C57.2466 16.3467 57.6186 16.7307 58.0746 16.9947C58.5426 17.2587 59.0346 17.3907 59.5506 17.3907C60.0786 17.3907 60.5706 17.2587 61.0266 16.9947C61.4946 16.7187 61.8666 16.3227 62.1426 15.8067C62.4306 15.2907 62.5746 14.6907 62.5746 14.0067ZM67.7439 10.5327C68.0439 10.0287 68.4399 9.63874 68.9319 9.36274C69.4359 9.07474 70.0299 8.93074 70.7139 8.93074V11.0547H70.1919C69.3879 11.0547 68.7759 11.2587 68.3559 11.6667C67.9479 12.0747 67.7439 12.7827 67.7439 13.7907V19.0107H65.6919V9.09274H67.7439V10.5327ZM80.6901 13.8087C80.6901 14.1807 80.6661 14.5167 80.6181 14.8167H73.0401C73.1001 15.6087 73.3941 16.2447 73.9221 16.7247C74.4501 17.2047 75.0981 17.4447 75.8661 17.4447C76.9701 17.4447 77.7501 16.9827 78.2061 16.0587H80.4201C80.1201 16.9707 79.5741 17.7207 78.7821 18.3087C78.0021 18.8847 77.0301 19.1727 75.8661 19.1727C74.9181 19.1727 74.0661 18.9627 73.3101 18.5427C72.5661 18.1107 71.9781 17.5107 71.5461 16.7427C71.1261 15.9627 70.9161 15.0627 70.9161 14.0427C70.9161 13.0227 71.1201 12.1287 71.5281 11.3607C71.9481 10.5807 72.5301 9.98074 73.2741 9.56074C74.0301 9.14074 74.8941 8.93074 75.8661 8.93074C76.8021 8.93074 77.6361 9.13474 78.3681 9.54274C79.1001 9.95074 79.6701 10.5267 80.0781 11.2707C80.4861 12.0027 80.6901 12.8487 80.6901 13.8087ZM78.5481 13.1607C78.5361 12.4047 78.2661 11.7987 77.7381 11.3427C77.2101 10.8867 76.5561 10.6587 75.7761 10.6587C75.0681 10.6587 74.4621 10.8867 73.9581 11.3427C73.4541 11.7867 73.1541 12.3927 73.0581 13.1607H78.5481ZM85.3094 19.1727C84.5294 19.1727 83.8274 19.0347 83.2034 18.7587C82.5914 18.4707 82.1054 18.0867 81.7454 17.6067C81.3854 17.1147 81.1934 16.5687 81.1694 15.9687H83.2934C83.3294 16.3887 83.5274 16.7427 83.8874 17.0307C84.2594 17.3067 84.7214 17.4447 85.2734 17.4447C85.8494 17.4447 86.2934 17.3367 86.6054 17.1207C86.9294 16.8927 87.0914 16.6047 87.0914 16.2567C87.0914 15.8847 86.9114 15.6087 86.5514 15.4287C86.2034 15.2487 85.6454 15.0507 84.8774 14.8347C84.1334 14.6307 83.5274 14.4327 83.0594 14.2407C82.5914 14.0487 82.1834 13.7547 81.8354 13.3587C81.4994 12.9627 81.3314 12.4407 81.3314 11.7927C81.3314 11.2647 81.4874 10.7847 81.7994 10.3527C82.1114 9.90874 82.5554 9.56074 83.1314 9.30874C83.7194 9.05674 84.3914 8.93074 85.1474 8.93074C86.2754 8.93074 87.1814 9.21874 87.8654 9.79474C88.5614 10.3587 88.9334 11.1327 88.9814 12.1167H86.9294C86.8934 11.6727 86.7134 11.3187 86.3894 11.0547C86.0654 10.7907 85.6274 10.6587 85.0754 10.6587C84.5354 10.6587 84.1214 10.7607 83.8334 10.9647C83.5454 11.1687 83.4014 11.4387 83.4014 11.7747C83.4014 12.0387 83.4974 12.2607 83.6894 12.4407C83.8814 12.6207 84.1154 12.7647 84.3914 12.8727C84.6674 12.9687 85.0754 13.0947 85.6154 13.2507C86.3354 13.4427 86.9234 13.6407 87.3794 13.8447C87.8474 14.0367 88.2494 14.3247 88.5854 14.7087C88.9214 15.0927 89.0954 15.6027 89.1074 16.2387C89.1074 16.8027 88.9514 17.3067 88.6394 17.7507C88.3274 18.1947 87.8834 18.5427 87.3074 18.7947C86.7434 19.0467 86.0774 19.1727 85.3094 19.1727ZM89.6407 14.0067C89.6407 13.0107 89.8447 12.1287 90.2527 11.3607C90.6727 10.5927 91.2367 9.99874 91.9447 9.57874C92.6647 9.14674 93.4567 8.93074 94.3207 8.93074C95.1007 8.93074 95.7787 9.08674 96.3547 9.39874C96.9427 9.69874 97.4107 10.0767 97.7587 10.5327V9.09274H99.8287V19.0107H97.7587V17.5347C97.4107 18.0027 96.9367 18.3927 96.3367 18.7047C95.7367 19.0167 95.0527 19.1727 94.2847 19.1727C93.4327 19.1727 92.6527 18.9567 91.9447 18.5247C91.2367 18.0807 90.6727 17.4687 90.2527 16.6887C89.8447 15.8967 89.6407 15.0027 89.6407 14.0067ZM97.7587 14.0427C97.7587 13.3587 97.6147 12.7647 97.3267 12.2607C97.0507 11.7567 96.6847 11.3727 96.2287 11.1087C95.7727 10.8447 95.2807 10.7127 94.7527 10.7127C94.2247 10.7127 93.7327 10.8447 93.2767 11.1087C92.8207 11.3607 92.4487 11.7387 92.1607 12.2427C91.8847 12.7347 91.7467 13.3227 91.7467 14.0067C91.7467 14.6907 91.8847 15.2907 92.1607 15.8067C92.4487 16.3227 92.8207 16.7187 93.2767 16.9947C93.7447 17.2587 94.2367 17.3907 94.7527 17.3907C95.2807 17.3907 95.7727 17.2587 96.2287 16.9947C96.6847 16.7307 97.0507 16.3467 97.3267 15.8427C97.6147 15.3267 97.7587 14.7267 97.7587 14.0427ZM105.124 19.1727C104.344 19.1727 103.642 19.0347 103.018 18.7587C102.406 18.4707 101.92 18.0867 101.56 17.6067C101.2 17.1147 101.008 16.5687 100.984 15.9687H103.108C103.144 16.3887 103.342 16.7427 103.702 17.0307C104.074 17.3067 104.536 17.4447 105.088 17.4447C105.664 17.4447 106.108 17.3367 106.42 17.1207C106.744 16.8927 106.906 16.6047 106.906 16.2567C106.906 15.8847 106.726 15.6087 106.366 15.4287C106.018 15.2487 105.46 15.0507 104.692 14.8347C103.948 14.6307 103.342 14.4327 102.874 14.2407C102.406 14.0487 101.998 13.7547 101.65 13.3587C101.314 12.9627 101.146 12.4407 101.146 11.7927C101.146 11.2647 101.302 10.7847 101.614 10.3527C101.926 9.90874 102.37 9.56074 102.946 9.30874C103.534 9.05674 104.206 8.93074 104.962 8.93074C106.09 8.93074 106.996 9.21874 107.68 9.79474C108.376 10.3587 108.748 11.1327 108.796 12.1167H106.744C106.708 11.6727 106.528 11.3187 106.204 11.0547C105.88 10.7907 105.442 10.6587 104.89 10.6587C104.35 10.6587 103.936 10.7607 103.648 10.9647C103.36 11.1687 103.216 11.4387 103.216 11.7747C103.216 12.0387 103.312 12.2607 103.504 12.4407C103.696 12.6207 103.93 12.7647 104.206 12.8727C104.482 12.9687 104.89 13.0947 105.43 13.2507C106.15 13.4427 106.738 13.6407 107.194 13.8447C107.662 14.0367 108.064 14.3247 108.4 14.7087C108.736 15.0927 108.91 15.6027 108.922 16.2387C108.922 16.8027 108.766 17.3067 108.454 17.7507C108.142 18.1947 107.698 18.5427 107.122 18.7947C106.558 19.0467 105.892 19.1727 105.124 19.1727Z" fill="#1C1C1C"/>
<defs>
<linearGradient id="paint0_linear_2_756" x1="3.75555" y1="0.391979" x2="11.1022" y2="17.7208" gradientUnits="userSpaceOnUse">
<stop offset="0.0198252" stop-color="#0549B3"/>
<stop offset="1" stop-color="#69EDDC"/>
</linearGradient>
<linearGradient id="paint1_linear_2_756" x1="1.96913" y1="27.7113" x2="12.6466" y2="-5.58384" gradientUnits="userSpaceOnUse">
<stop stop-color="#0F58B7"/>
<stop offset="1" stop-color="#69ECDC"/>
</linearGradient>
</defs>
</svg>
