<svg width="131" height="44" viewBox="0 0 131 44" fill="none" xmlns="http://www.w3.org/2000/svg">
<path d="M17.9642 27.2011C24.2951 27.2011 29.4274 22.0688 29.4274 15.7379C29.4274 9.40691 24.2951 4.27466 17.9642 4.27466C11.6332 4.27466 6.50098 9.40691 6.50098 15.7379C6.50098 22.0688 11.6332 27.2011 17.9642 27.2011Z" fill="url(#paint0_linear_12669_535)"/>
<path d="M14.8005 0C6.60331 0 0 7.1232 0 15.9658C0 16.2114 0 16.457 0 16.7845V43.3123C6.07201 43.3123 11.0055 37.9904 11.0055 31.4403V31.3584V16.7027C11.0055 11.1351 15.18 6.63194 20.3412 6.63194C25.1229 6.63194 28.8078 10.7269 29.415 15.1482C28.8837 6.8787 22.6182 0 14.8005 0Z" fill="url(#paint1_linear_12669_535)"/>
<path d="M108.784 34.0291V9.11426H113.001V34.0291H108.784Z" fill="#1C1C1C"/>
<path d="M120.481 34.0291V12.4027H114.446V9.11426H130.695V12.4027H124.698V34.0291H120.481Z" fill="#1C1C1C"/>
<path d="M43.4274 34.0203V9.30468H54.442C56.3353 9.30468 57.896 9.66288 59.1241 10.3793C60.3522 11.0957 61.2605 12.0807 61.849 13.3344C62.4374 14.5625 62.7317 15.9697 62.7317 17.556C62.7317 20.0122 61.9641 21.9823 60.429 23.4663C58.9194 24.9503 56.8726 25.6922 54.2884 25.6922H47.6106V34.0203H43.4274ZM47.6106 22.3917H53.5209C55.1839 22.3917 56.4376 21.9567 57.282 21.0868C58.1263 20.2169 58.5484 19.04 58.5484 17.556C58.5484 15.9697 58.1391 14.7416 57.3203 13.8717C56.5272 13.0018 55.3247 12.5668 53.7128 12.5668H47.6106V22.3917Z" fill="#1C1C1C"/>
<path d="M68.5518 33.9958C67.0679 33.9958 65.9421 33.6376 65.1745 32.9213C64.407 32.1793 64.0232 30.964 64.0232 29.2753V9.11523H68.2064V28.8915C68.2064 29.6079 68.3344 30.094 68.5902 30.3499C68.8461 30.6058 69.7416 30.7337 69.7416 30.7337L70.087 33.8807C70.087 33.8807 69.1403 33.9958 68.5518 33.9958Z" fill="#1C1C1C"/>
<path d="M77.1934 34.1983C76.042 34.1983 74.9674 33.9937 73.9696 33.5843C72.9973 33.1749 72.217 32.5609 71.6285 31.7421C71.0401 30.8978 70.7458 29.8616 70.7458 28.6335C70.7458 26.8937 71.3343 25.4993 72.5112 24.4502C73.7137 23.3756 75.5559 22.8384 78.0377 22.8384H83.8712V22.0324C83.8712 21.1625 83.7305 20.4717 83.4491 19.96C83.1932 19.4483 82.7071 19.0773 81.9907 18.847C81.2999 18.6167 80.2764 18.5016 78.9204 18.5016C76.7712 18.5016 74.7628 18.8214 72.895 19.4611V16.3524C73.7137 16.0198 74.7116 15.7512 75.8885 15.5465C77.0655 15.3418 78.3319 15.2394 79.688 15.2394C82.3489 15.2394 84.3701 15.7767 85.7518 16.8513C87.159 17.9259 87.8626 19.6785 87.8626 22.1092V33.8146H84.2934L84.0247 31.9724C83.2827 32.6888 82.3617 33.2389 81.2615 33.6227C80.1869 34.0065 78.8309 34.1983 77.1934 34.1983ZM78.3064 31.2048C79.56 31.2048 80.6474 31.0001 81.5685 30.5908C82.5152 30.1558 83.2827 29.5802 83.8712 28.8638V25.6784H78.1145C76.8864 25.6784 75.9909 25.9214 75.428 26.4075C74.8907 26.8681 74.622 27.5845 74.622 28.5567C74.622 29.5034 74.9419 30.1814 75.5815 30.5908C76.2211 31.0001 77.1294 31.2048 78.3064 31.2048Z" fill="#1C1C1C"/>
<path d="M89.6436 34.0203V15.829H93.4814L93.6733 17.7479C94.4921 17.1083 95.4643 16.571 96.5901 16.136C97.7414 15.6755 99.0079 15.4452 100.39 15.4452C102.743 15.4452 104.458 15.9953 105.532 17.0955C106.607 18.1957 107.144 19.9099 107.144 22.2382V34.0203H102.999V22.4301C102.999 21.0229 102.705 20.0378 102.117 19.4749C101.554 18.9121 100.479 18.6306 98.8928 18.6306C97.9461 18.6306 97.0122 18.8225 96.0911 19.2063C95.1957 19.5901 94.4409 20.089 93.8268 20.7031V34.0203H89.6436Z" fill="#1C1C1C"/>
<defs>
<linearGradient id="paint0_linear_12669_535" x1="6.50098" y1="0.678458" x2="19.2182" y2="30.675" gradientUnits="userSpaceOnUse">
<stop offset="0.0198252" stop-color="#0549B3"/>
<stop offset="1" stop-color="#69EDDC"/>
</linearGradient>
<linearGradient id="paint1_linear_12669_535" x1="3.4086" y1="47.9689" x2="21.8915" y2="-9.66573" gradientUnits="userSpaceOnUse">
<stop stop-color="#0F58B7"/>
<stop offset="1" stop-color="#69ECDC"/>
</linearGradient>
</defs>
</svg>
